inDegrees=no
num_controls=7
num_derivatives=13
num_iterations=118
num_multipliers=7
num_parameters=0
num_slacks=7
num_states=26
objective=0.474298
objective_accelerations=0.049605
objective_balance=0.003765
objective_effort=0.044293
objective_height=0.371025
objective_ligament=0.005610
solver_duration=1654.814113
status=Solve_Succeeded
success=true
DataType=double
version=3
OpenSimVersion=4.5
endheader
time	/jointset/ground_pelvis/pelvis_tilt/value	/jointset/ground_pelvis/pelvis_tx/value	/jointset/ground_pelvis/pelvis_ty/value	/jointset/hip_l/hip_flexion_l/value	/jointset/hip_l/hip_adduction_l/value	/jointset/hip_l/hip_rotation_l/value	/jointset/back/lumbar_extension/value	/jointset/patellofemoral_l/patellar_flexion_l/value	/jointset/knee_l/knee_flexion_l/value	/jointset/knee_l/knee_adduction_l/value	/jointset/knee_l/knee_rotation_l/value	/jointset/ankle_l/ankle_angle_l/value	/jointset/subtalar_l/subtalar_angle_l/value	/jointset/ground_pelvis/pelvis_tilt/speed	/jointset/ground_pelvis/pelvis_tx/speed	/jointset/ground_pelvis/pelvis_ty/speed	/jointset/hip_l/hip_flexion_l/speed	/jointset/hip_l/hip_adduction_l/speed	/jointset/hip_l/hip_rotation_l/speed	/jointset/back/lumbar_extension/speed	/jointset/patellofemoral_l/patellar_flexion_l/speed	/jointset/knee_l/knee_flexion_l/speed	/jointset/knee_l/knee_adduction_l/speed	/jointset/knee_l/knee_rotation_l/speed	/jointset/ankle_l/ankle_angle_l/speed	/jointset/subtalar_l/subtalar_angle_l/speed	/forceset/tau_hip_flexion_l	/forceset/tau_hip_adduction_l	/forceset/tau_hip_rotation_l	/forceset/tau_knee_flexion_l	/forceset/tau_ankle_angle_l	/forceset/tau_subtalar_angle_l	/forceset/tau_lumbar_extension	lambda_cid13_p0	lambda_cid13_p1	lambda_cid13_p2	lambda_cid13_p3	lambda_cid13_p4	lambda_cid13_p5	lambda_cid14_p0	/jointset/ground_pelvis/pelvis_tilt/accel	/jointset/ground_pelvis/pelvis_tx/accel	/jointset/ground_pelvis/pelvis_ty/accel	/jointset/hip_l/hip_flexion_l/accel	/jointset/hip_l/hip_adduction_l/accel	/jointset/hip_l/hip_rotation_l/accel	/jointset/back/lumbar_extension/accel	/jointset/patellofemoral_l/patellar_flexion_l/accel	/jointset/knee_l/knee_flexion_l/accel	/jointset/knee_l/knee_adduction_l/accel	/jointset/knee_l/knee_rotation_l/accel	/jointset/ankle_l/ankle_angle_l/accel	/jointset/subtalar_l/subtalar_angle_l/accel	gamma_cid13_p0	gamma_cid13_p1	gamma_cid13_p2	gamma_cid13_p3	gamma_cid13_p4	gamma_cid13_p5	gamma_cid14_p0
1	-0.1351683853777028	-0.06592639010056289	0.6419839019215768	1.464765120581121	-0.3201978633298028	0.08111469804851427	-0.9599305287376532	1.509559360466487	1.509559360466301	-0.02428070482247254	-0.1745287946441935	0.2868881937770388	0.07879873139532007	0.09680107045549567	0.02297597442990461	0.07296621062307714	-0.2971173398511463	-0.009126121337416212	-0.06345472351504521	9.680822784248393e-05	-0.1582665158717548	-0.1582665158717366	-0.003334808208924908	-2.001151416732472e-05	0.03373999438844333	0.004338871331472887	-0.3982748541064014	0.01618972130055488	0.0008670019090945036	-0.3999710549162538	0.04758946216173966	0.01634059316715605	0.4416222440643496	-37.54211029465092	2.315905801303248	-4.066659832737157	15.54787929106158	-814.590456353312	-62.377627263454	-0.04026960663256671	0.7977391613497486	-0.05689827515791848	1.797576760108333	-5.553007026694485	-0.1707031791169105	-1.627563471375494	-0.01827924458626599	-5.46953408601215	-5.469534086012652	-0.5946450827085127	-0.02115805336265701	-1.103274855642546	-0.710240634073502	-6.24035420146159e-09	1.258645507697613e-08	2.816984110715698e-08	-1.575236599312988e-09	-1.951926766091878e-08	1.261047901589233e-07	-1.420561984026381e-08
1.01	-0.1341607247497048	-0.06569942200573541	0.6428032141133015	1.461517093159595	-0.3202968993545172	0.08039844632487017	-0.9599300589440619	1.507703612447008	1.507703612446894	-0.02434240248834048	-0.174528901898088	0.2871704489143871	0.07880764126852552	0.1047405951163061	0.02242386431369053	0.0908822079475033	-0.3524626281712608	-0.0106696120137178	-0.07978759773521631	-2.951293811118641e-06	-0.2128697896835859	-0.2128697896835696	-0.008998232345740294	-1.255266853082912e-06	0.02269065886852853	-0.002551255283712551	-0.3972964007378907	0.01638971885083905	0.0008079315274656291	-0.3998139395608959	0.04753965721408081	0.01648736964244378	0.4410571853438555	-37.50864784566779	2.235172834298646	-4.041076963852682	15.40900265875552	-814.0343226440144	-62.44631768658675	-0.04030059986797758	0.7934876227370642	-0.05343408161094038	1.786503230221229	-5.521465284450296	-0.1444521395306196	-1.634961405818698	-0.005839572308561189	-5.453725287201005	-5.453725287201064	-0.5512299506019868	0.01343365338721613	-1.108820067690075	-0.6775583378895321	-1.16810265763005e-08	1.927202636332181e-09	4.833785167150994e-08	1.625362367611274e-09	-2.505522674488848e-08	1.457734899622023e-07	-1.989496821378863e-08
1.02	-0.133073383174242	-0.06547778835242159	0.643801264680593	1.457716377744913	-0.3204110263115231	0.07951910345732859	-0.9599305897990307	1.505302231437723	1.505302231437681	-0.02446054216986154	-0.1745288133515901	0.2873415992630314	0.07874781794304941	0.1127372599487334	0.02190908612717423	0.1087138857363835	-0.4076549384825882	-0.0121443077957725	-0.09607295229461915	-0.0001033214696110756	-0.267393113832715	-0.2673931138327019	-0.01462321133991384	1.914856481100553e-05	0.01151903664764762	-0.009407768404837164	-0.3963179473693712	0.01658971640112445	0.0007488611458470948	-0.3996568242055379	0.04748985226641993	0.01663414611773211	0.4404921266233694	-37.48503234859579	2.156342478363926	-4.016001155748904	15.32653798366916	-813.6048941067115	-62.49249199550326	-0.04033416852797898	0.8091671956731324	-0.04943188921836857	1.780712852999127	-5.522411424937046	-0.15694420026753	-1.61805953922185	-0.01840137541547016	-5.453544153471781	-5.453544153472493	-0.5869560541801355	-0.02082853649268701	-1.127732195835777	-0.7035179352613382	-1.743372820136024e-08	-9.282186268255859e-09	6.810357688325081e-08	5.109326645687036e-09	-3.068448393641492e-08	1.651473112163841e-07	-2.565757644551314e-08
1.03	-0.131906033790957	-0.06526095241858317	0.6449771577974377	1.45336470192995	-0.3205395424232492	0.07847719122189703	-0.9599309591373923	1.502356125348323	1.502356125348388	-0.02463472502895848	-0.1745285122977314	0.2874005950081346	0.07861971145611607	0.1207180728158476	0.02148077126439435	0.1264456675520553	-0.4626362839104697	-0.01354678679156497	-0.1122981016717863	0.0001458681408228411	-0.3218045845597249	-0.3218045845597197	-0.02020553871188584	4.000220486379899e-05	0.0002772040897915406	-0.0161974763708362	-0.3961178404511467	0.01684614509047744	0.0006609027719998014	-0.3991061638788344	0.04745617117871895	0.01686261848103025	0.4409090689121823	-37.45983168027163	2.029061166742268	-3.968702747446198	14.90934240074221	-813.5528101972312	-62.54410757124429	-0.0403745504562126	0.7903535164885833	-0.03612895086005675	1.766543036711186	-5.479409086253553	-0.1300854223024478	-1.623059130096747	0.06404127764833421	-5.431414290062721	-5.431414290063538	-0.5427187328810116	0.01340549659411942	-1.122847972601886	-0.664296189638523	-2.318961379836101e-08	-2.049718881023108e-08	8.786519714241403e-08	8.59618240652965e-09	-3.631469314944705e-08	1.845181235057792e-07	-3.142093222681112e-08
1.04	-0.1306593132421503	-0.06504771916658295	0.6463297951706112	1.448464530063804	-0.3206817204595464	0.07727336419406766	-0.9599253441497719	1.498866611400103	1.498866611400274	-0.02486450069260686	-0.1745280300710061	0.287347084590291	0.07842418809704882	0.1286114930532845	0.02118854975953338	0.1440627370021236	-0.5173541487199429	-0.01487669271005048	-0.1284559107742582	0.001093543686276817	-0.3760746855966209	-0.3760746855966232	-0.02574177225087008	5.538313851055888e-05	-0.01098219594171999	-0.02289114283160918	-0.3959177335329095	0.01710257377983124	0.0005729443981713748	-0.3985555035521303	0.04742249009101492	0.01709109084432781	0.4413260112010065	-37.44473573915612	1.903728165581632	-3.921919344902066	14.54829344720202	-813.6308400107678	-62.5742813679181	-0.04041751565459706	0.7916886697376614	-0.02221321763458655	1.757770379878411	-5.469715301255355	-0.1424295848061388	-1.604591484282802	0.1212958115884989	-5.425270215449005	-5.425270215449619	-0.5777372875825764	-0.02192307777390005	-1.131245690566871	-0.6843096342161316	-2.833617275472953e-08	-3.300531887590637e-08	1.074872857121324e-07	1.031362821074048e-08	-4.163384259993572e-08	2.0106565765165e-07	-3.714248632465498e-08
1.05	-0.1293341936114651	-0.06483662220119686	0.6478579551655586	1.443018675634418	-0.3208368106866842	0.07590837159745976	-0.9599061129373481	1.494835262682128	1.494835262682132	-0.02514939528761225	-0.1745274157923319	0.2871809903342072	0.07816229967671816	0.1363877028498298	0.02106418504983959	0.1615428419586474	-0.5717554874126974	-0.01612755441392157	-0.1445256119821581	0.002934531259444882	-0.4301561375759149	-0.4301561375759141	-0.03122760271381152	6.577111569293398e-05	-0.02222960800553194	-0.02946231703276365	-0.3960362267717304	0.01739558139579761	0.0004561867458884677	-0.3976048044997112	0.04740296306153421	0.01740773479267336	0.4421920764048596	-37.4090771883992	1.723001072448222	-3.850883550906693	13.95773609361106	-813.6990802486721	-62.62907438799947	-0.04046933423646822	0.7668735119330355	-0.002544425865643486	1.739158106947592	-5.416160882590665	-0.1143535611972553	-1.605645335183415	0.2427751000510326	-5.3937359954648	-5.393735995463949	-0.53260332187352	0.01229501965603407	-1.120436585022313	-0.6398950885996135	-3.346369025357829e-08	-4.555385917669727e-08	1.271050139165556e-07	1.197577995380658e-08	-4.694327143284491e-08	2.175249643555358e-07	-4.286273411989091e-08
1.06	-0.127932054607351	-0.06462576814855349	0.6495601217207528	1.437030644272245	-0.3210039973504647	0.07438318480954555	-0.9598630168752559	1.490264268783101	1.490264268782936	-0.02548886766648712	-0.1745267425770483	0.2869026324333385	0.07783542475926898	0.1440153677391784	0.02113996721099711	0.1788640490514988	-0.6257895352776572	-0.01729598003857834	-0.1604947490356516	0.005866513627415457	-0.4840037218070178	-0.4840037218070105	-0.03665732902569793	6.717046054399786e-05	-0.03343492489870258	-0.03588844225529879	-0.3961547200105432	0.01768858901176359	0.0003394290936294607	-0.3966541054472911	0.04738343603205144	0.0177243787410171	0.44305814160872	-37.38383086540509	1.544314994605587	-3.780421952133039	13.42211601329335	-813.9016860867434	-62.66379024927396	-0.04052380095860707	0.7619796882982933	0.01781615653567543	1.725990807143958	-5.3962571356964	-0.1259423689632836	-1.584478653401509	0.3394947705490592	-5.37849666581082	-5.378496665810691	-0.5665164573715618	-0.02372080424017324	-1.122826656438608	-0.6552998384922705	-3.760771884649691e-08	-5.845870729291702e-08	1.4539036639082e-07	1.223773437222252e-08	-5.17606926838872e-08	2.272960841846454e-07	-4.775605414630355e-08
1.07	-0.1264545585898936	-0.06441313477728239	0.6514346103742971	1.43050446914719	-0.3211824238228763	0.07269886725360072	-0.9597849424865986	1.485156045319278	1.485156045319026	-0.02588235370525309	-0.1745261019759287	0.2865123326495133	0.07744502380456038	0.151439740189953	0.02142215227644987	0.1959976208998991	-0.6793471582838518	-0.01837127844665766	-0.1763479400745325	0.00995268853388254	-0.5375946499010855	-0.5375946499010629	-0.04202744393521269	6.132318243957213e-05	-0.04462748506948569	-0.04216495288076381	-0.3959341925642785	0.01800625433904969	0.0002023570598588614	-0.3955144689605373	0.04759058767866218	0.01809172879898393	0.4436840815801276	-37.25494298945171	1.317917178084123	-3.693737750667897	12.76197362343795	-813.7139498145979	-62.7343838655375	-0.0405925108671565	0.7260468174350574	0.03873895423114992	1.701619881928415	-5.320771325673033	-0.09563110639498619	-1.582660090428375	0.473827515140231	-5.342432133094754	-5.342432133092545	-0.5204297018397447	0.01107720354046145	-1.117844832391469	-0.6098148496906776	-4.169943419973837e-08	-7.138250795251065e-08	1.636048478156078e-07	1.242521020954004e-08	-5.655194331887273e-08	2.367114493927562e-07	-5.260538865309792e-08
1.08	-0.1249041426891349	-0.06419661570082053	0.6534793506479732	1.423445666503557	-0.3213710647853017	0.0708566336350084	-0.9596598766159881	1.479513304324138	1.479513304323796	-0.02632917503192872	-0.1745255010689627	0.2860100324369815	0.07699266010857356	0.1585993443994477	0.02191710824914985	0.2129143730779129	-0.7323150389937279	-0.01933887804132517	-0.1920779615652938	0.01526481001813634	-0.5909072280707542	-0.5909072280707173	-0.04732438660866136	5.923162977626401e-05	-0.05583501064000125	-0.04828099051091143	-0.3957136651180068	0.01832391966633463	6.528502611428144e-05	-0.3943748324737823	0.04779773932527097	0.01845907885694792	0.4443100215515415	-37.13679621842717	1.093650456846534	-3.607679249193673	12.15534273620513	-813.6649271080254	-62.78692830482091	-0.04066417361047859	0.7090260400422776	0.06037033798512199	1.682626873066689	-5.278308676432708	-0.1044026062809283	-1.559844743777606	0.5846840861063886	-5.322826680931053	-5.322826680931103	-0.5518820101583394	-0.0229696591519621	-1.125819736385095	-0.6232052394287978	-4.616296148340388e-08	-8.387884820372119e-08	1.795236519019949e-07	1.390199552552287e-08	-6.146646473431288e-08	2.436503942229625e-07	-5.690621542221335e-08
